HIERARCHY
ROOT pelvis
{
  OFFSET 0 100 0
  CHANNELS 6 Xposition Yposition Zposition Zrotation Xrotation Yrotation
  JOINT pelvis_right_femur
  {
    OFFSET -10.78128 -3.44521 -0.5502486
    CHANNELS 3 Zrotation Xrotation Yrotation
    JOINT right_femur_tibia
    {
      OFFSET -0.8047443 -44.0398 -0.1307829
      CHANNELS 3 Zrotation Xrotation Yrotation
      JOINT right_tibia_foot
      {
        OFFSET 3.006224 -47.83518 -5
        CHANNELS 3 Zrotation Xrotation Yrotation
        End Site
        {
          OFFSET 0 -5 15
        }
      }
    }
  }
  JOINT pelvis_left_femur
  {
    OFFSET 10.78128 -3.44521 -0.5502486
    CHANNELS 3 Zrotation Xrotation Yrotation
    JOINT left_femur_tibia
    {
      OFFSET 0.8047443 -44.0398 -0.1307829
      CHANNELS 3 Zrotation Xrotation Yrotation
      JOINT left_tibia_foot
      {
        OFFSET -4.370144 -48.10324 -4.275266
        CHANNELS 3 Zrotation Xrotation Yrotation
        End Site
        {
          OFFSET 0 -5 15
        }
      }
    }
  }
  JOINT pelvis_spine1
  {
    OFFSET 0 6.468898 -3.129235
    CHANNELS 3 Zrotation Xrotation Yrotation
    JOINT spine1
    {
      OFFSET 0 23.15396 4.99043
      CHANNELS 3 Zrotation Xrotation Yrotation
      JOINT spine2
      {
        OFFSET 0 20.79997 -5.064912
        CHANNELS 3 Zrotation Xrotation Yrotation
        JOINT neck
        {
          OFFSET 0 14.38658 9.616178
          CHANNELS 3 Zrotation Xrotation Yrotation
          End Site
          {
            OFFSET 0 20 0
          }
        }
      }
      JOINT right_manubrium
      {
        OFFSET -5.722621 16.35077 3.967754
        CHANNELS 3 Zrotation Xrotation Yrotation
        JOINT right_clavicle
        {
          OFFSET -13.16364 1.694482 -4.693211
          CHANNELS 3 Zrotation Xrotation Yrotation
          JOINT right_humerus
          {
            OFFSET -28.5034 -0.3100689 -2.792744
            CHANNELS 3 Zrotation Xrotation Yrotation
            JOINT right_radius
            {
              OFFSET -25.15693 0.02248979 -1.271978
              CHANNELS 3 Zrotation Xrotation Yrotation
              End Site
              {
                OFFSET -15 0 0
              }
            }
          }
        }
      }
      JOINT left_manubrium
      {
        OFFSET 5.722621 16.35077 3.967754
        CHANNELS 3 Zrotation Xrotation Yrotation
        JOINT left_clavicle
        {
          OFFSET 13.16364 1.694482 -4.693211
          CHANNELS 3 Zrotation Xrotation Yrotation
          JOINT left_humerus
          {
            OFFSET 29.39168 -1.063119 -2.237045
            CHANNELS 3 Zrotation Xrotation Yrotation
            JOINT left_radius
            {
              OFFSET 24.59957 -0.9528479 0.9047498
              CHANNELS 3 Zrotation Xrotation Yrotation
              End Site
              {
                OFFSET 15 -0 -0
              }
            }
          }
        }
      }
    }
  }
}
MOTION
Frames: 9
Frame Time: 0.0416666666667
37.47783 100.6889 264.5422 -0.5613562 -0.7050053 0.8820881 3.086296 7.891152 7.824154 -0 34.7016 -0 14.33071 -10.77154 0.6498705 0.6210658 -33.51233 -4.723186 -0 27.89176 -0 -8.026177 -7.908135 18.29505 1.433638 -8.374619 9.291474 -3.015039 9.475762 -1.88255 3.234233 20.05204 4.494094 2.707166 -13.9237 6.256255 2.532755 -21.22223 10.514 76.99114 18.94027 0.5654751 -0 0 21.04218 -26.51711 11.14991 16.70161 2.268023 -13.42751 -2.493491 -93.51476 20.8126 26.74783 0 0 -8.938946 -1.819177 8.958698 16.28773
38.78117 100.9582 271.9051 -0.5257176 -0.6642221 1.290298 2.885461 6.114443 6.900016 -0 41.63257 -0 15.24037 -8.017496 -1.275926 -0.6757796 -30.57193 -5.803782 -0 29.65253 -0 -7.665738 -8.911293 17.78004 0.973589 -9.290578 8.875011 -2.962308 9.465363 -1.894269 3.404063 20.4859 4.41172 2.786411 -13.78462 6.303133 2.828781 -20.18952 10.03236 78.03718 18.85896 -0.3262439 -0 0 19.66604 -26.33872 11.15071 16.37601 2.138961 -12.81587 -2.510209 -93.13168 21.143 26.3939 0 0 -8.303232 -2.103683 9.090352 16.49019
40.28155 101.7292 278.6579 -0.4762947 -0.6065833 1.87436 2.024196 3.43402 6.093273 -0 49.69101 -0 15.39845 -6.482783 -3.555218 -1.751662 -27.29569 -6.897749 -0 30.41093 -0 -7.236101 -10.61761 16.90167 0.8658705 -10.04159 8.256635 -3.057569 9.343049 -1.85068 3.24129 20.7477 4.571227 2.686519 -13.83535 6.400481 3.329795 -18.87025 9.839071 79.33372 18.97361 -1.79041 -0 0 17.48106 -25.89662 11.25226 15.79595 1.90366 -12.68958 -2.63079 -92.29457 21.59285 25.23177 0 0 -8.21914 -2.168594 9.335455 16.38414
41.60666 102.9016 284.845 -0.4334995 -0.5547947 2.394368 1.604873 -1.69285 4.996087 -0 56.5113 -0 14.98806 -6.296935 -6.017676 -2.514474 -22.98773 -7.581111 -0 29.76506 -0 -6.848712 -12.48926 15.95364 0.8174738 -10.18731 7.369015 -3.119828 9.231379 -1.9443 2.972338 21.21101 4.84222 2.524369 -13.67957 6.562534 3.952969 -17.80209 9.774359 80.80348 19.2006 -3.265726 -0 0 15.28778 -25.30327 11.38918 15.23713 1.657897 -13.09437 -2.857058 -90.89587 22.16436 23.2549 0 0 -8.594128 -1.984727 9.705203 16.03338
42.81474 104.3155 290.4772 -0.3558744 -0.4600423 3.353499 1.392592 -8.108036 4.204638 -0 60.03839 -0 13.99516 -6.651042 -7.709667 -3.026981 -17.74727 -7.763299 -0 27.55214 -0 -6.689999 -14.0917 14.95181 0.6600077 -10.11282 6.080432 -3.030895 9.005831 -2.491745 2.676683 21.79806 5.148559 2.336161 -13.31798 6.755942 4.33124 -16.88983 9.544826 82.31011 19.41562 -4.797871 -0 0 13.35659 -24.72683 11.47892 14.79976 1.601995 -13.87806 -3.21637 -89.07506 22.75659 20.50672 0 0 -9.43239 -1.559946 10.15842 15.46921
43.9581 105.6656 295.8503 -0.267349 -0.3495293 4.465948 1.702865 -14.72296 3.637816 -0 59.05113 -0 12.45879 -7.116394 -8.705688 -3.511415 -12.94921 -7.998807 -0 24.94075 -0 -6.756443 -15.29754 14.13532 0.4290953 -9.974479 4.73886 -2.811841 8.819542 -3.416892 2.475575 22.42755 5.433516 2.19678 -12.77147 6.989589 4.159411 -15.9644 9.030053 83.71086 19.50923 -6.502145 -0 0 11.6773 -24.24899 11.44641 14.49635 1.765302 -14.67815 -3.622894 -87.20291 23.28855 17.39144 0 0 -10.5592 -1.069762 10.67785 14.79358
45.14483 106.5255 301.0246 -0.1493833 -0.1987083 5.976446 1.945475 -20.12181 3.329012 -0 54.04549 -0 10.64588 -7.206929 -9.572799 -3.90578 -8.45602 -8.317571 -0 22.40145 -0 -6.915957 -16.45319 13.26611 0.1784394 -9.609723 3.472219 -2.489592 8.548701 -4.627618 2.420132 22.89665 5.625988 2.130315 -12.18311 7.215874 3.407208 -15.04467 8.384076 84.75438 19.48224 -8.293877 -0 0 10.07581 -23.84513 11.2816 14.26812 2.146467 -15.57691 -4.112475 -85.29633 23.75719 13.9547 0 0 -11.99567 -0.5529495 11.24889 13.99515
46.08318 106.6961 306.301 -0.05259101 -0.07085852 7.245794 1.584386 -24.70633 2.947793 -0 46.17386 -0 8.849763 -6.94749 -10.50015 -4.014188 -4.221352 -8.621244 -0 20.23892 -0 -7.043515 -17.91574 12.42768 -0.4182076 -8.908121 2.32032 -1.907752 8.477266 -5.990212 2.512369 23.258 5.665553 2.147063 -11.58175 7.362709 2.562637 -14.03194 7.643712 85.72467 19.38321 -10.18445 -0 0 8.365586 -23.42968 11.04363 14.04768 2.852527 -16.43084 -4.574716 -83.24334 24.1289 10.45663 0 0 -13.61384 0.0669492 11.84746 13.01404
46.9817 106.026 311.4775 0.07156512 0.09846783 8.915453 0.9780301 -29.54179 2.752018 -0 36.94323 -0 7.055366 -6.519267 -11.67856 -4.099398 -0.5421785 -9.004038 -0 19.1477 -0 -7.073281 -19.65041 11.6478 -0.8696008 -8.811679 1.423841 -1.31294 7.837421 -7.086323 2.618677 23.25596 5.788992 2.153316 -11.33531 7.629696 1.760273 -12.79905 7.149092 86.58603 19.30238 -12.25125 -0 0 6.084028 -22.86253 10.85317 13.66245 3.510458 -17.28494 -5.056665 -81.2683 24.36346 6.994959 0 0 -15.27391 0.7578752 12.45055 11.95909
